<?xml version="1.0" standalone="no"?>
<!DOCTYPE svg PUBLIC "-//W3C//DTD SVG 20010904//EN"
 "http://www.w3.org/TR/2001/REC-SVG-20010904/DTD/svg10.dtd">
<svg version="1.0" xmlns="http://www.w3.org/2000/svg"
 width="200.000000pt" height="200.000000pt" viewBox="0 0 200.000000 200.000000"
 preserveAspectRatio="xMidYMid meet">

<g transform="translate(0.000000,200.000000) scale(0.100000,-0.100000)"
fill="#000000" stroke="none">
<path d="M950 1719 c-14 -6 -144 -79 -288 -162 -233 -134 -267 -157 -288 -193
l-24 -41 0 -323 0 -323 24 -41 c21 -36 55 -59 291 -194 146 -85 282 -158 301
-163 21 -6 47 -6 69 0 30 8 457 248 542 304 18 12 41 38 52 58 20 35 21 52 21
359 0 307 -1 324 -21 359 -24 44 -27 46 -313 211 -293 170 -303 174 -366 149z
m256 -271 c107 -61 194 -115 194 -118 0 -9 -384 -230 -400 -230 -16 0 -400
221 -400 230 0 9 382 229 399 230 7 0 100 -50 207 -112z m-443 -403 l157 -90
0 -238 0 -237 -48 27 c-27 16 -119 69 -205 118 l-157 90 0 238 0 237 48 -27
c26 -16 119 -68 205 -118z m727 -92 l0 -238 -157 -90 c-86 -49 -179 -102 -205
-118 l-48 -27 0 237 0 238 203 117 c111 64 203 117 205 117 1 1 2 -106 2 -236z"/>
</g>
</svg>
